<mxfile host="app.diagrams.net" modified="2022-08-13T07:49:47.394Z" agent="5.0 (Macintosh; Intel Mac OS X 10_15_7) AppleWebKit/537.36 (KHTML, like Gecko) Chrome/103.0.0.0 Safari/537.36" etag="KLcGX0w5VHFf9kqo5k6C" version="20.2.3" type="github">
  <diagram id="aimaO4OSkyT24VIqMWGA" name="페이지-1">
    <mxGraphModel dx="1428" dy="721" grid="1" gridSize="10" guides="1" tooltips="1" connect="1" arrows="1" fold="1" page="1" pageScale="1" pageWidth="827" pageHeight="1169" math="0" shadow="0">
      <root>
        <mxCell id="0" />
        <mxCell id="1" parent="0" />
        <mxCell id="KNZPq48U4ulXQ8-fj9ZB-2" value="게시판 서비스" style="shape=umlFrame;whiteSpace=wrap;html=1;width=120;height=20;" vertex="1" parent="1">
          <mxGeometry x="120" y="10" width="690" height="610" as="geometry" />
        </mxCell>
        <mxCell id="KNZPq48U4ulXQ8-fj9ZB-1" value="이용자" style="shape=umlActor;verticalLabelPosition=bottom;verticalAlign=top;html=1;" vertex="1" parent="1">
          <mxGeometry x="30" y="40" width="30" height="60" as="geometry" />
        </mxCell>
        <mxCell id="KNZPq48U4ulXQ8-fj9ZB-15" style="rounded=0;orthogonalLoop=1;jettySize=auto;html=1;exitX=0;exitY=0.5;exitDx=0;exitDy=0;entryX=1;entryY=0.3333333333333333;entryDx=0;entryDy=0;entryPerimeter=0;strokeColor=default;endArrow=none;endFill=0;" edge="1" parent="1" source="KNZPq48U4ulXQ8-fj9ZB-3" target="KNZPq48U4ulXQ8-fj9ZB-1">
          <mxGeometry relative="1" as="geometry" />
        </mxCell>
        <mxCell id="KNZPq48U4ulXQ8-fj9ZB-3" value="회원가입" style="rounded=1;whiteSpace=wrap;html=1;arcSize=40;fontColor=#000000;fillColor=#ffffc0;strokeColor=#ff0000;" vertex="1" parent="1">
          <mxGeometry x="200" y="120" width="120" height="40" as="geometry" />
        </mxCell>
        <mxCell id="KNZPq48U4ulXQ8-fj9ZB-18" style="rounded=0;orthogonalLoop=1;jettySize=auto;html=1;exitX=0;exitY=0.5;exitDx=0;exitDy=0;entryX=1;entryY=0.3333333333333333;entryDx=0;entryDy=0;entryPerimeter=0;endArrow=none;endFill=0;strokeColor=default;" edge="1" parent="1" source="KNZPq48U4ulXQ8-fj9ZB-5" target="KNZPq48U4ulXQ8-fj9ZB-1">
          <mxGeometry relative="1" as="geometry" />
        </mxCell>
        <mxCell id="KNZPq48U4ulXQ8-fj9ZB-23" style="edgeStyle=none;rounded=0;orthogonalLoop=1;jettySize=auto;html=1;exitX=1;exitY=0;exitDx=0;exitDy=0;entryX=0.5;entryY=1;entryDx=0;entryDy=0;dashed=1;endArrow=classic;endFill=1;strokeColor=default;" edge="1" parent="1" source="KNZPq48U4ulXQ8-fj9ZB-5" target="KNZPq48U4ulXQ8-fj9ZB-7">
          <mxGeometry relative="1" as="geometry" />
        </mxCell>
        <mxCell id="KNZPq48U4ulXQ8-fj9ZB-27" value="&amp;lt;&amp;lt;include&amp;gt;&amp;gt;" style="edgeLabel;html=1;align=center;verticalAlign=middle;resizable=0;points=[];" vertex="1" connectable="0" parent="KNZPq48U4ulXQ8-fj9ZB-23">
          <mxGeometry x="0.1342" relative="1" as="geometry">
            <mxPoint as="offset" />
          </mxGeometry>
        </mxCell>
        <mxCell id="KNZPq48U4ulXQ8-fj9ZB-33" style="edgeStyle=none;rounded=0;orthogonalLoop=1;jettySize=auto;html=1;exitX=1;exitY=0.5;exitDx=0;exitDy=0;entryX=0;entryY=0.5;entryDx=0;entryDy=0;endArrow=none;endFill=0;strokeColor=default;" edge="1" parent="1" source="KNZPq48U4ulXQ8-fj9ZB-5" target="KNZPq48U4ulXQ8-fj9ZB-30">
          <mxGeometry relative="1" as="geometry">
            <Array as="points">
              <mxPoint x="720" y="260" />
            </Array>
          </mxGeometry>
        </mxCell>
        <mxCell id="KNZPq48U4ulXQ8-fj9ZB-5" value="게시판 보기" style="rounded=1;whiteSpace=wrap;html=1;arcSize=40;fontColor=#000000;fillColor=#ffffc0;strokeColor=#ff0000;" vertex="1" parent="1">
          <mxGeometry x="200" y="240" width="120" height="40" as="geometry" />
        </mxCell>
        <mxCell id="KNZPq48U4ulXQ8-fj9ZB-17" style="rounded=0;orthogonalLoop=1;jettySize=auto;html=1;exitX=0;exitY=0.5;exitDx=0;exitDy=0;entryX=1;entryY=0.3333333333333333;entryDx=0;entryDy=0;entryPerimeter=0;endArrow=none;endFill=0;strokeColor=default;" edge="1" parent="1" source="KNZPq48U4ulXQ8-fj9ZB-6" target="KNZPq48U4ulXQ8-fj9ZB-1">
          <mxGeometry relative="1" as="geometry" />
        </mxCell>
        <mxCell id="KNZPq48U4ulXQ8-fj9ZB-24" style="edgeStyle=none;rounded=0;orthogonalLoop=1;jettySize=auto;html=1;exitX=1;exitY=0;exitDx=0;exitDy=0;dashed=1;endArrow=classic;endFill=1;strokeColor=default;entryX=0.5;entryY=1;entryDx=0;entryDy=0;" edge="1" parent="1" source="KNZPq48U4ulXQ8-fj9ZB-6" target="KNZPq48U4ulXQ8-fj9ZB-7">
          <mxGeometry relative="1" as="geometry">
            <mxPoint x="430" y="90" as="targetPoint" />
          </mxGeometry>
        </mxCell>
        <mxCell id="KNZPq48U4ulXQ8-fj9ZB-34" style="edgeStyle=none;rounded=0;orthogonalLoop=1;jettySize=auto;html=1;exitX=1;exitY=0.5;exitDx=0;exitDy=0;entryX=0;entryY=0.5;entryDx=0;entryDy=0;endArrow=none;endFill=0;strokeColor=default;" edge="1" parent="1" source="KNZPq48U4ulXQ8-fj9ZB-6" target="KNZPq48U4ulXQ8-fj9ZB-30">
          <mxGeometry relative="1" as="geometry">
            <Array as="points">
              <mxPoint x="720" y="430" />
            </Array>
          </mxGeometry>
        </mxCell>
        <mxCell id="KNZPq48U4ulXQ8-fj9ZB-6" value="게시글 보기" style="rounded=1;whiteSpace=wrap;html=1;arcSize=40;fontColor=#000000;fillColor=#ffffc0;strokeColor=#ff0000;" vertex="1" parent="1">
          <mxGeometry x="200" y="410" width="120" height="40" as="geometry" />
        </mxCell>
        <mxCell id="KNZPq48U4ulXQ8-fj9ZB-16" style="rounded=0;orthogonalLoop=1;jettySize=auto;html=1;exitX=0;exitY=0.5;exitDx=0;exitDy=0;entryX=1;entryY=0.3333333333333333;entryDx=0;entryDy=0;entryPerimeter=0;endArrow=none;endFill=0;strokeColor=default;" edge="1" parent="1" source="KNZPq48U4ulXQ8-fj9ZB-7" target="KNZPq48U4ulXQ8-fj9ZB-1">
          <mxGeometry relative="1" as="geometry" />
        </mxCell>
        <mxCell id="KNZPq48U4ulXQ8-fj9ZB-19" style="edgeStyle=none;rounded=0;orthogonalLoop=1;jettySize=auto;html=1;exitX=1;exitY=0.5;exitDx=0;exitDy=0;entryX=0;entryY=0.5;entryDx=0;entryDy=0;endArrow=classic;endFill=1;strokeColor=default;dashed=1;" edge="1" parent="1" source="KNZPq48U4ulXQ8-fj9ZB-7" target="KNZPq48U4ulXQ8-fj9ZB-8">
          <mxGeometry relative="1" as="geometry" />
        </mxCell>
        <mxCell id="KNZPq48U4ulXQ8-fj9ZB-21" value="&amp;lt;&amp;lt;include&amp;gt;&amp;gt;" style="edgeLabel;html=1;align=center;verticalAlign=middle;resizable=0;points=[];" vertex="1" connectable="0" parent="KNZPq48U4ulXQ8-fj9ZB-19">
          <mxGeometry x="0.075" relative="1" as="geometry">
            <mxPoint as="offset" />
          </mxGeometry>
        </mxCell>
        <mxCell id="KNZPq48U4ulXQ8-fj9ZB-7" value="로그인" style="rounded=1;whiteSpace=wrap;html=1;arcSize=40;fontColor=#000000;fillColor=#ffffc0;strokeColor=#ff0000;" vertex="1" parent="1">
          <mxGeometry x="370" y="40" width="120" height="40" as="geometry" />
        </mxCell>
        <mxCell id="KNZPq48U4ulXQ8-fj9ZB-32" style="edgeStyle=none;rounded=0;orthogonalLoop=1;jettySize=auto;html=1;exitX=1;exitY=0.5;exitDx=0;exitDy=0;entryX=0;entryY=0.5;entryDx=0;entryDy=0;endArrow=none;endFill=0;strokeColor=default;" edge="1" parent="1" source="KNZPq48U4ulXQ8-fj9ZB-8" target="KNZPq48U4ulXQ8-fj9ZB-30">
          <mxGeometry relative="1" as="geometry">
            <Array as="points">
              <mxPoint x="850" y="70" />
            </Array>
          </mxGeometry>
        </mxCell>
        <mxCell id="KNZPq48U4ulXQ8-fj9ZB-8" value="인증" style="rounded=1;whiteSpace=wrap;html=1;arcSize=40;fontColor=#000000;fillColor=#ffffc0;strokeColor=#ff0000;" vertex="1" parent="1">
          <mxGeometry x="600" y="50" width="120" height="40" as="geometry" />
        </mxCell>
        <mxCell id="KNZPq48U4ulXQ8-fj9ZB-20" style="edgeStyle=none;rounded=0;orthogonalLoop=1;jettySize=auto;html=1;exitX=0;exitY=0.5;exitDx=0;exitDy=0;entryX=1;entryY=0.5;entryDx=0;entryDy=0;endArrow=classic;endFill=1;strokeColor=default;dashed=1;" edge="1" parent="1" source="KNZPq48U4ulXQ8-fj9ZB-9" target="KNZPq48U4ulXQ8-fj9ZB-7">
          <mxGeometry relative="1" as="geometry" />
        </mxCell>
        <mxCell id="KNZPq48U4ulXQ8-fj9ZB-22" value="&amp;lt;&amp;lt;extend&amp;gt;&amp;gt;" style="edgeLabel;html=1;align=center;verticalAlign=middle;resizable=0;points=[];" vertex="1" connectable="0" parent="KNZPq48U4ulXQ8-fj9ZB-20">
          <mxGeometry x="0.0173" y="-2" relative="1" as="geometry">
            <mxPoint as="offset" />
          </mxGeometry>
        </mxCell>
        <mxCell id="KNZPq48U4ulXQ8-fj9ZB-9" value="로그인 실패" style="rounded=1;whiteSpace=wrap;html=1;arcSize=40;fontColor=#000000;fillColor=#ffffc0;strokeColor=#ff0000;" vertex="1" parent="1">
          <mxGeometry x="600" y="130" width="120" height="40" as="geometry" />
        </mxCell>
        <mxCell id="KNZPq48U4ulXQ8-fj9ZB-25" style="edgeStyle=none;rounded=0;orthogonalLoop=1;jettySize=auto;html=1;exitX=0;exitY=0.5;exitDx=0;exitDy=0;dashed=1;endArrow=classic;endFill=1;strokeColor=default;entryX=1;entryY=0.5;entryDx=0;entryDy=0;" edge="1" parent="1" source="KNZPq48U4ulXQ8-fj9ZB-10" target="KNZPq48U4ulXQ8-fj9ZB-5">
          <mxGeometry relative="1" as="geometry" />
        </mxCell>
        <mxCell id="KNZPq48U4ulXQ8-fj9ZB-10" value="게시판 정렬" style="rounded=1;whiteSpace=wrap;html=1;arcSize=40;fontColor=#000000;fillColor=#ffffc0;strokeColor=#ff0000;" vertex="1" parent="1">
          <mxGeometry x="414" y="200" width="120" height="40" as="geometry" />
        </mxCell>
        <mxCell id="KNZPq48U4ulXQ8-fj9ZB-26" style="edgeStyle=none;rounded=0;orthogonalLoop=1;jettySize=auto;html=1;exitX=0;exitY=0.5;exitDx=0;exitDy=0;dashed=1;endArrow=classic;endFill=1;strokeColor=default;entryX=1;entryY=0.5;entryDx=0;entryDy=0;" edge="1" parent="1" source="KNZPq48U4ulXQ8-fj9ZB-11" target="KNZPq48U4ulXQ8-fj9ZB-5">
          <mxGeometry relative="1" as="geometry">
            <mxPoint x="320" y="220" as="targetPoint" />
          </mxGeometry>
        </mxCell>
        <mxCell id="KNZPq48U4ulXQ8-fj9ZB-11" value="게시판 검색" style="rounded=1;whiteSpace=wrap;html=1;arcSize=40;fontColor=#000000;fillColor=#ffffc0;strokeColor=#ff0000;" vertex="1" parent="1">
          <mxGeometry x="414" y="270" width="120" height="40" as="geometry" />
        </mxCell>
        <mxCell id="KNZPq48U4ulXQ8-fj9ZB-28" style="edgeStyle=none;rounded=0;orthogonalLoop=1;jettySize=auto;html=1;exitX=0;exitY=0.5;exitDx=0;exitDy=0;entryX=1;entryY=0.5;entryDx=0;entryDy=0;dashed=1;endArrow=classic;endFill=1;strokeColor=default;" edge="1" parent="1" source="KNZPq48U4ulXQ8-fj9ZB-12" target="KNZPq48U4ulXQ8-fj9ZB-6">
          <mxGeometry relative="1" as="geometry" />
        </mxCell>
        <mxCell id="KNZPq48U4ulXQ8-fj9ZB-36" style="edgeStyle=none;rounded=0;orthogonalLoop=1;jettySize=auto;html=1;exitX=1;exitY=0.5;exitDx=0;exitDy=0;endArrow=none;endFill=0;strokeColor=default;entryX=0;entryY=0.5;entryDx=0;entryDy=0;" edge="1" parent="1" source="KNZPq48U4ulXQ8-fj9ZB-12" target="KNZPq48U4ulXQ8-fj9ZB-30">
          <mxGeometry relative="1" as="geometry">
            <mxPoint x="900" y="140" as="targetPoint" />
            <Array as="points">
              <mxPoint x="720" y="390" />
            </Array>
          </mxGeometry>
        </mxCell>
        <mxCell id="KNZPq48U4ulXQ8-fj9ZB-12" value="게시글 작성, 수정, 삭제" style="rounded=1;whiteSpace=wrap;html=1;arcSize=40;fontColor=#000000;fillColor=#ffffc0;strokeColor=#ff0000;" vertex="1" parent="1">
          <mxGeometry x="414" y="370" width="120" height="40" as="geometry" />
        </mxCell>
        <mxCell id="KNZPq48U4ulXQ8-fj9ZB-29" style="edgeStyle=none;rounded=0;orthogonalLoop=1;jettySize=auto;html=1;exitX=0;exitY=0.5;exitDx=0;exitDy=0;entryX=1;entryY=0.5;entryDx=0;entryDy=0;dashed=1;endArrow=classic;endFill=1;strokeColor=default;" edge="1" parent="1" source="KNZPq48U4ulXQ8-fj9ZB-14" target="KNZPq48U4ulXQ8-fj9ZB-6">
          <mxGeometry relative="1" as="geometry" />
        </mxCell>
        <mxCell id="KNZPq48U4ulXQ8-fj9ZB-35" style="edgeStyle=none;rounded=0;orthogonalLoop=1;jettySize=auto;html=1;exitX=1;exitY=0.5;exitDx=0;exitDy=0;entryX=0;entryY=0.5;entryDx=0;entryDy=0;endArrow=none;endFill=0;strokeColor=default;" edge="1" parent="1" source="KNZPq48U4ulXQ8-fj9ZB-14" target="KNZPq48U4ulXQ8-fj9ZB-30">
          <mxGeometry relative="1" as="geometry">
            <Array as="points">
              <mxPoint x="720" y="470" />
            </Array>
          </mxGeometry>
        </mxCell>
        <mxCell id="KNZPq48U4ulXQ8-fj9ZB-14" value="댓글 보기, 작성, &lt;br&gt;수정, 삭제" style="rounded=1;whiteSpace=wrap;html=1;arcSize=40;fontColor=#000000;fillColor=#ffffc0;strokeColor=#ff0000;" vertex="1" parent="1">
          <mxGeometry x="414" y="450" width="120" height="40" as="geometry" />
        </mxCell>
        <mxCell id="KNZPq48U4ulXQ8-fj9ZB-30" value="DB" style="html=1;dropTarget=0;" vertex="1" parent="1">
          <mxGeometry x="900" y="100" width="70" height="70" as="geometry" />
        </mxCell>
      </root>
    </mxGraphModel>
  </diagram>
</mxfile>
